<?xml version="1.0" encoding="utf-8"?>
<svg version="1.1" id="svglogo" xmlns="http://www.w3.org/2000/svg" xmlns:xlink="http://www.w3.org/1999/xlink" x="0px" y="0px"
	 viewBox="0 0 134.5 37.5" style="enable-background:new 0 0 134.5 37.5;" xml:space="preserve">
<style type="text/css">
	.st0{fill:none;}
	.st1{fill:#BA002C;}
</style>
<g>
	<rect x="29.5" y="6.3" class="st0" width="189.7" height="45.6"/>
	<path d="M32.1,32.1V6.3h7.8l4.7,17.6l4.6-17.6H57v25.8h-4.8V11.8L47,32.1h-5l-5.1-20.3v20.3H32.1z"/>
	<path d="M61,22.5c0-1.6,0.4-3.2,1.2-4.8s2-2.7,3.4-3.5s3.1-1.2,5-1.2c2.8,0,5.1,0.9,6.9,2.8s2.7,4.2,2.7,7c0,2.8-0.9,5.2-2.7,7
		s-4.1,2.8-6.9,2.8c-1.7,0-3.3-0.4-4.9-1.2s-2.7-1.9-3.5-3.4S61,24.6,61,22.5z M66,22.7c0,1.9,0.4,3.3,1.3,4.3s2,1.5,3.3,1.5
		S73,28,73.8,27s1.3-2.4,1.3-4.3c0-1.8-0.4-3.2-1.3-4.2s-2-1.5-3.2-1.5s-2.4,0.5-3.3,1.5S66,20.9,66,22.7z"/>
	<path d="M89.2,32.1l-7.5-18.7h5.2l3.5,9.5l1,3.2c0.3-0.8,0.4-1.3,0.5-1.6c0.2-0.5,0.3-1.1,0.5-1.6l3.6-9.5h5.1l-7.4,18.7H89.2z"/>
	<path d="M104.1,10.9V6.3h4.9v4.6H104.1z M104.1,32.1V13.4h4.9v18.7H104.1z"/>
	<path d="M124.9,26.1l4.9,0.8c-0.6,1.8-1.6,3.2-3,4.1s-3.1,1.4-5.1,1.4c-3.2,0-5.6-1.1-7.2-3.2c-1.2-1.7-1.8-3.8-1.8-6.4
		c0-3.1,0.8-5.5,2.4-7.3s3.7-2.6,6.1-2.6c2.8,0,5,0.9,6.6,2.8s2.4,4.6,2.3,8.4h-12.4c0,1.5,0.4,2.6,1.2,3.4s1.7,1.2,2.8,1.2
		c0.8,0,1.4-0.2,2-0.6S124.7,27.1,124.9,26.1z M125.2,21.1c0-1.4-0.4-2.5-1.1-3.3s-1.6-1.1-2.6-1.1c-1.1,0-2,0.4-2.7,1.2
		s-1,1.9-1,3.2H125.2z"/>
</g>
<path class="st1" d="M2.9,19.3V4c0-1,0.8-1.7,1.7-1.7c1,0,1.7,0.8,1.7,1.7v15.3c0,1-0.8,1.7-1.7,1.7C3.7,21,2.9,20.2,2.9,19.3z
	 M9.8,30.2V18.4c0-1,0.8-1.7,1.7-1.7c1,0,1.7,0.8,1.7,1.7v11.8c0,1-0.8,1.7-1.7,1.7C10.6,31.9,9.8,31.1,9.8,30.2z M16.7,18.5v-6.5
	c0-1,0.8-1.7,1.7-1.7c1,0,1.7,0.8,1.7,1.7v6.5c0,1-0.8,1.7-1.7,1.7S16.7,19.5,16.7,18.5z M23.6,22.1v-6.1c0-1,0.8-1.7,1.7-1.7
	c1,0,1.7,0.8,1.7,1.7v6.1c0,1-0.8,1.7-1.7,1.7C24.4,23.9,23.6,23.1,23.6,22.1z M16.7,26.2v-0.6c0-1,0.8-1.7,1.7-1.7
	c1,0,1.7,0.8,1.7,1.7v0.6c0,1-0.8,1.7-1.7,1.7S16.7,27.1,16.7,26.2z M9.8,11.4V8c0-1,0.8-1.7,1.7-1.7c1,0,1.7,0.8,1.7,1.7v3.3
	c0,1-0.8,1.7-1.7,1.7C10.6,13.1,9.8,12.3,9.8,11.4z M2.9,34.2v-8c0-1,0.8-1.7,1.7-1.7c1,0,1.7,0.8,1.7,1.7v8c0,1-0.8,1.7-1.7,1.7
	C3.7,36,2.9,35.2,2.9,34.2z"/>
</svg>
