<svg id="svglogo" xmlns="http://www.w3.org/2000/svg" viewBox="0 0 192.21 33.67"><title>logo-white</title><path d="M2.9,19.3V4A1.7,1.7,0,1,1,6.3,4V19.3A1.69,1.69,0,0,1,4.6,21,1.75,1.75,0,0,1,2.9,19.3ZM9.8,30.2V18.4a1.7,1.7,0,0,1,3.4,0V30.2a1.69,1.69,0,0,1-1.7,1.7A1.75,1.75,0,0,1,9.8,30.2Zm6.9-11.7V12a1.7,1.7,0,1,1,3.4,0v6.5a1.7,1.7,0,0,1-3.4,0Zm6.9,3.6V16A1.7,1.7,0,1,1,27,16v6.1a1.69,1.69,0,0,1-1.7,1.7A1.63,1.63,0,0,1,23.6,22.1Zm-6.9,4.1v-.6a1.7,1.7,0,0,1,3.4,0v.6a1.69,1.69,0,0,1-1.7,1.7A1.75,1.75,0,0,1,16.7,26.2ZM9.8,11.4V8a1.7,1.7,0,1,1,3.4,0v3.3A1.69,1.69,0,0,1,11.5,13,1.6,1.6,0,0,1,9.8,11.4ZM2.9,34.2v-8a1.7,1.7,0,0,1,3.4,0v8a1.69,1.69,0,0,1-1.7,1.7A1.63,1.63,0,0,1,2.9,34.2Z" transform="translate(-2.9 -2.3)" fill="#ba002c"/><path d="M47.13,6l7.51,24h-6L47.12,25H39.37L37.86,30H32.93L40.62,6ZM40.71,20.61H45.8l-2.52-8.42Z" transform="translate(-2.9 -2.3)" fill="#fff"/><path d="M57,36V12.22H61.8v2.61a4.73,4.73,0,0,1,4.67-3,5.76,5.76,0,0,1,4.72,2.31Q73,16.48,73,20.89q0,4.7-1.86,7.08a5.84,5.84,0,0,1-4.82,2.38A4.51,4.51,0,0,1,62.06,28v8Zm5.08-13.76a10,10,0,0,0,.23,2.6,2.61,2.61,0,0,0,1,1.29,2.54,2.54,0,0,0,1.59.57,2.4,2.4,0,0,0,1.92-1.09c.56-.74.84-2.35.84-4.85q0-5.25-2.77-5.25a2.58,2.58,0,0,0-1.92.93,4.63,4.63,0,0,0-.86,3.16Z" transform="translate(-2.9 -2.3)" fill="#fff"/><path d="M76.4,36V12.22h4.82v2.61a4.73,4.73,0,0,1,4.68-3,5.77,5.77,0,0,1,4.72,2.31q1.83,2.31,1.83,6.72,0,4.7-1.85,7.08a5.87,5.87,0,0,1-4.83,2.38A4.51,4.51,0,0,1,81.48,28v8Zm5.08-13.76a10,10,0,0,0,.23,2.6,2.67,2.67,0,0,0,1,1.29,2.55,2.55,0,0,0,1.6.57,2.4,2.4,0,0,0,1.91-1.09c.57-.74.85-2.35.85-4.85q0-5.25-2.78-5.25a2.59,2.59,0,0,0-1.92.93,4.63,4.63,0,0,0-.86,3.16Z" transform="translate(-2.9 -2.3)" fill="#fff"/><path d="M97.1,31.7V5.9h7.8l4.7,17.6,4.6-17.6H122V31.7h-4.8V11.4L112,31.7h-5l-5.1-20.3V31.7Z" transform="translate(-2.9 -2.3)" fill="#fff"/><path d="M126,22.1a10.65,10.65,0,0,1,1.2-4.8,8.22,8.22,0,0,1,3.4-3.5,10,10,0,0,1,5-1.2,9,9,0,0,1,6.9,2.8,9.74,9.74,0,0,1,2.7,7,9.58,9.58,0,0,1-2.7,7,9.42,9.42,0,0,1-6.9,2.8,10.74,10.74,0,0,1-4.9-1.2,7.69,7.69,0,0,1-3.5-3.4A11.75,11.75,0,0,1,126,22.1Zm5,.2a6.15,6.15,0,0,0,1.3,4.3,4.27,4.27,0,0,0,3.3,1.5,3.93,3.93,0,0,0,3.2-1.5,6.68,6.68,0,0,0,1.3-4.3,6,6,0,0,0-1.3-4.2,4.22,4.22,0,0,0-3.2-1.5,4.42,4.42,0,0,0-3.3,1.5A6,6,0,0,0,131,22.3Z" transform="translate(-2.9 -2.3)" fill="#fff"/><path d="M154.2,31.7,146.7,13h5.2l3.5,9.5,1,3.2c.3-.8.4-1.3.5-1.6.2-.5.3-1.1.5-1.6L161,13h5.1l-7.4,18.7Z" transform="translate(-2.9 -2.3)" fill="#fff"/><path d="M169.1,10.5V5.9H174v4.6Zm0,21.2V13H174V31.7Z" transform="translate(-2.9 -2.3)" fill="#fff"/><path d="M189.9,25.7l4.9.8a7.52,7.52,0,0,1-3,4.1,9.25,9.25,0,0,1-5.1,1.4,8.51,8.51,0,0,1-7.2-3.2,10.76,10.76,0,0,1-1.8-6.4,10.53,10.53,0,0,1,2.4-7.3,7.81,7.81,0,0,1,6.1-2.6,8.13,8.13,0,0,1,6.6,2.8c1.6,1.9,2.4,4.6,2.3,8.4H182.7a4.55,4.55,0,0,0,1.2,3.4,3.78,3.78,0,0,0,2.8,1.2,3.38,3.38,0,0,0,2-.6A2.88,2.88,0,0,0,189.9,25.7Zm.3-5a4.86,4.86,0,0,0-1.1-3.3,3.27,3.27,0,0,0-2.6-1.1,3.42,3.42,0,0,0-2.7,1.2,4.72,4.72,0,0,0-1,3.2Z" transform="translate(-2.9 -2.3)" fill="#fff"/></svg>